<svg width="30" height="30" viewBox="0 0 30 30" fill="none" xmlns="http://www.w3.org/2000/svg">
<rect width="30" height="30" rx="8" fill="#F7931A"/>
<path fill-rule="evenodd" clip-rule="evenodd" d="M21.6825 13.3366C21.9812 11.3125 20.4621 10.2242 18.3866 9.49798L19.06 6.75544L17.4163 6.3402L16.76 9.01031C16.3371 8.90251 15.9033 8.80213 15.4702 8.70189L15.4425 8.6955L16.1036 6.00801L14.4599 5.5918L13.7865 8.33337L13.7146 8.31668C13.3816 8.23941 13.054 8.16337 12.7363 8.08229L12.7382 8.0736L10.4705 7.49902L10.0329 9.28167C10.0329 9.28167 11.2534 9.56558 11.2277 9.58296C11.8935 9.75195 12.0134 10.1991 11.9934 10.5544L11.2267 13.6784C11.2724 13.69 11.3314 13.7074 11.3979 13.7335L11.2239 13.69L10.149 18.0665C10.0672 18.2712 9.86077 18.5792 9.39467 18.4624C9.41179 18.4865 8.19994 18.1601 8.19994 18.1601L7.38379 20.0703L9.52403 20.612C9.75385 20.6706 9.98112 20.7308 10.206 20.7904L10.2062 20.7905C10.3703 20.834 10.5333 20.8771 10.695 20.9191L10.0149 23.6925L11.6576 24.1078L12.3311 21.3652C12.7801 21.4879 13.2157 21.6018 13.6419 21.71L12.9703 24.4409L14.614 24.8562L15.2941 22.0885C18.0983 22.6274 20.2062 22.4101 21.0937 19.8356C21.809 17.7632 21.0585 16.5668 19.5832 15.7875C20.6581 15.5364 21.4666 14.8189 21.6825 13.3366ZM17.9252 18.6845C17.4601 20.5865 14.5279 19.8002 13.1858 19.4403L13.1857 19.4402C13.0648 19.4078 12.9568 19.3789 12.8647 19.3557L13.7684 15.6812C13.8808 15.7098 14.0181 15.7411 14.1738 15.7766C15.562 16.0932 18.4033 16.7412 17.9252 18.6845ZM14.4526 14.0709C15.571 14.3741 18.0096 15.035 18.4341 13.3066C18.8684 11.5388 16.4977 11.0064 15.3398 10.7464C15.2093 10.717 15.0942 10.6912 15.0002 10.6674L14.1822 13.999C14.2596 14.0186 14.3506 14.0433 14.4526 14.0709Z" fill="white"/>
</svg>
