<svg width="32" height="32" viewBox="0 0 32 32" fill="none" xmlns="http://www.w3.org/2000/svg">
<path d="M1.95312 10.3906C1.11979 10.3906 0.703125 9.96354 0.703125 9.10938V5.28125C0.703125 3.67708 1.10938 2.47396 1.92188 1.67188C2.74479 0.859375 3.97396 0.453125 5.60938 0.453125H9.42188C10.276 0.453125 10.7031 0.869792 10.7031 1.70312C10.7031 2.54688 10.276 2.96875 9.42188 2.96875H5.64062C4.85938 2.96875 4.26042 3.17708 3.84375 3.59375C3.42708 4 3.21875 4.60938 3.21875 5.42188V9.10938C3.21875 9.96354 2.79688 10.3906 1.95312 10.3906ZM30.0312 10.3906C29.1979 10.3906 28.7812 9.96354 28.7812 9.10938V5.42188C28.7812 4.60938 28.5677 4 28.1406 3.59375C27.7135 3.17708 27.1146 2.96875 26.3438 2.96875H22.5625C21.7188 2.96875 21.2969 2.54688 21.2969 1.70312C21.2969 0.869792 21.7188 0.453125 22.5625 0.453125H26.3906C28.026 0.453125 29.25 0.859375 30.0625 1.67188C30.8854 2.47396 31.2969 3.67708 31.2969 5.28125V9.10938C31.2969 9.96354 30.875 10.3906 30.0312 10.3906ZM5.60938 31.0312C3.97396 31.0312 2.74479 30.625 1.92188 29.8125C1.10938 29.0104 0.703125 27.8021 0.703125 26.1875V22.375C0.703125 21.5208 1.11979 21.0938 1.95312 21.0938C2.79688 21.0938 3.21875 21.5208 3.21875 22.375V26.0625C3.21875 26.875 3.42708 27.4844 3.84375 27.8906C4.26042 28.3073 4.85938 28.5156 5.64062 28.5156H9.42188C10.276 28.5156 10.7031 28.9375 10.7031 29.7812C10.7031 30.6146 10.276 31.0312 9.42188 31.0312H5.60938ZM22.5625 31.0312C21.7188 31.0312 21.2969 30.6146 21.2969 29.7812C21.2969 28.9375 21.7188 28.5156 22.5625 28.5156H26.3438C27.1146 28.5156 27.7135 28.3073 28.1406 27.8906C28.5677 27.4844 28.7812 26.875 28.7812 26.0625V22.375C28.7812 21.5208 29.1979 21.0938 30.0312 21.0938C30.875 21.0938 31.2969 21.5208 31.2969 22.375V26.1875C31.2969 27.8021 30.8854 29.0104 30.0625 29.8125C29.25 30.625 28.026 31.0312 26.3906 31.0312H22.5625ZM10.0469 14.6875C9.68229 14.6875 9.38021 14.5729 9.14062 14.3438C8.91146 14.1042 8.79688 13.7969 8.79688 13.4219V11.2969C8.79688 10.9219 8.91146 10.6198 9.14062 10.3906C9.38021 10.151 9.68229 10.0312 10.0469 10.0312C10.4115 10.0312 10.7083 10.151 10.9375 10.3906C11.1771 10.6198 11.2969 10.9219 11.2969 11.2969V13.4219C11.2969 13.7969 11.1771 14.1042 10.9375 14.3438C10.7083 14.5729 10.4115 14.6875 10.0469 14.6875ZM14.7344 18.375C14.349 18.375 14.0469 18.2812 13.8281 18.0938C13.6094 17.9062 13.5 17.6458 13.5 17.3125C13.5 17.0312 13.5938 16.7969 13.7812 16.6094C13.9792 16.4115 14.2188 16.3125 14.5 16.3125H15.0469C15.1198 16.3125 15.1771 16.2969 15.2188 16.2656C15.2604 16.224 15.2812 16.1615 15.2812 16.0781V11.0156C15.2812 10.7135 15.375 10.474 15.5625 10.2969C15.75 10.1094 15.9948 10.0156 16.2969 10.0156C16.6094 10.0156 16.8542 10.1094 17.0312 10.2969C17.2188 10.474 17.3125 10.7135 17.3125 11.0156V15.9375C17.3125 16.7292 17.1042 17.3333 16.6875 17.75C16.2708 18.1667 15.6667 18.375 14.875 18.375C14.8542 18.375 14.8281 18.375 14.7969 18.375C14.776 18.375 14.7552 18.375 14.7344 18.375ZM21.8906 14.6875C21.526 14.6875 21.224 14.5729 20.9844 14.3438C20.7552 14.1042 20.6406 13.7969 20.6406 13.4219V11.2969C20.6406 10.9219 20.7552 10.6198 20.9844 10.3906C21.224 10.151 21.526 10.0312 21.8906 10.0312C22.2552 10.0312 22.5521 10.151 22.7812 10.3906C23.0208 10.6198 23.1406 10.9219 23.1406 11.2969V13.4219C23.1406 13.7969 23.0208 14.1042 22.7812 14.3438C22.5521 14.5729 22.2552 14.6875 21.8906 14.6875ZM15.9062 23.625C14.9583 23.625 14.0208 23.4427 13.0938 23.0781C12.1667 22.7031 11.3906 22.1562 10.7656 21.4375C10.6615 21.3229 10.5833 21.2083 10.5312 21.0938C10.4792 20.9688 10.4531 20.8385 10.4531 20.7031C10.4531 20.4115 10.5521 20.1719 10.75 19.9844C10.9479 19.7865 11.1927 19.6875 11.4844 19.6875C11.6719 19.6875 11.8229 19.7292 11.9375 19.8125C12.0625 19.8958 12.1875 19.9948 12.3125 20.1094C12.7604 20.5677 13.3073 20.9323 13.9531 21.2031C14.599 21.474 15.25 21.6094 15.9062 21.6094C16.6042 21.6094 17.2708 21.474 17.9062 21.2031C18.5521 20.9219 19.0885 20.5573 19.5156 20.1094C19.776 19.8281 20.0469 19.6875 20.3281 19.6875C20.6094 19.6875 20.849 19.7865 21.0469 19.9844C21.2448 20.1719 21.3438 20.4115 21.3438 20.7031C21.3438 20.8594 21.3177 21 21.2656 21.125C21.224 21.25 21.1562 21.3594 21.0625 21.4531C20.375 22.1406 19.5781 22.6771 18.6719 23.0625C17.7656 23.4375 16.8438 23.625 15.9062 23.625Z" fill="black"/>
</svg>
