<svg width="25" height="24" viewBox="0 0 25 24" fill="none" xmlns="http://www.w3.org/2000/svg">
<path fill-rule="evenodd" clip-rule="evenodd" d="M12.25 23C18.3251 23 23.25 18.0751 23.25 12C23.25 5.92487 18.3251 1 12.25 1C6.17487 1 1.25 5.92487 1.25 12C1.25 18.0751 6.17487 23 12.25 23ZM7.40956 9.58334C7.09004 9.26001 7.09004 8.73983 7.40956 8.41651L9.88015 5.91651C10.2024 5.59046 10.7279 5.58735 11.0539 5.90956C11.38 6.23177 11.3831 6.75729 11.0609 7.08334L9.98707 8.16992H16.4999C16.9583 8.16992 17.3299 8.54153 17.3299 8.99992C17.3299 9.45832 16.9583 9.82992 16.4999 9.82992H9.98707L11.0609 10.9165C11.3831 11.2426 11.38 11.7681 11.0539 12.0903C10.7279 12.4125 10.2024 12.4094 9.88015 12.0833L7.40956 9.58334ZM17.0903 14.4165C17.4098 14.7398 17.4098 15.26 17.0903 15.5833L14.6197 18.0833C14.2975 18.4094 13.772 18.4125 13.4459 18.0903C13.1199 17.7681 13.1168 17.2426 13.439 16.9165L14.5128 15.8299L7.99992 15.8299C7.54153 15.8299 7.16992 15.4583 7.16992 14.9999C7.16992 14.5415 7.54153 14.1699 7.99992 14.1699L14.5128 14.1699L13.439 13.0833C13.1168 12.7573 13.1199 12.2318 13.4459 11.9096C13.772 11.5873 14.2975 11.5905 14.6197 11.9165L17.0903 14.4165Z" fill="white"/>
</svg>
