<svg width="25" height="24" viewBox="0 0 25 24" fill="none" xmlns="http://www.w3.org/2000/svg">
<path fill-rule="evenodd" clip-rule="evenodd" d="M12.75 23C18.8251 23 23.75 18.0751 23.75 12C23.75 5.92487 18.8251 1 12.75 1C6.67487 1 1.75 5.92487 1.75 12C1.75 18.0751 6.67487 23 12.75 23ZM9.72896 8.23617C8.98436 8.68293 8.75 9.16083 8.75 9.5C8.75 9.83917 8.98436 10.3171 9.72896 10.7638C10.4537 11.1986 11.5194 11.5 12.75 11.5C13.9806 11.5 15.0463 11.1986 15.771 10.7638C16.5156 10.3171 16.75 9.83917 16.75 9.5C16.75 9.16083 16.5156 8.68293 15.771 8.23617C15.0463 7.80135 13.9806 7.5 12.75 7.5C11.5194 7.5 10.4537 7.80135 9.72896 8.23617ZM8.69997 6.52119C9.78492 5.87022 11.2192 5.5 12.75 5.5C14.2808 5.5 15.7151 5.87022 16.8 6.52119C17.8651 7.16021 18.75 8.18231 18.75 9.5C18.75 10.8177 17.8651 11.8398 16.8 12.4788C15.7151 13.1298 14.2808 13.5 12.75 13.5C11.2192 13.5 9.78492 13.1298 8.69997 12.4788C7.63493 11.8398 6.75 10.8177 6.75 9.5C6.75 8.18231 7.63493 7.16021 8.69997 6.52119ZM16.7465 14.1933C17.0334 14.0654 17.3093 13.9226 17.5718 13.7651C17.8786 13.581 18.1891 13.3612 18.4847 13.106C18.6522 13.4512 18.75 13.833 18.75 14.25C18.75 15.5427 17.8103 16.4973 16.7675 17.0708C15.6886 17.6641 14.2664 18 12.75 18C11.2336 18 9.81136 17.6641 8.73255 17.0708C7.68974 16.4973 6.75 15.5427 6.75 14.25C6.75 13.833 6.84781 13.4512 7.01534 13.106C7.3109 13.3612 7.62143 13.581 7.92823 13.7651C8.19073 13.9226 8.46658 14.0654 8.75351 14.1933C8.7511 14.2134 8.75 14.2323 8.75 14.25C8.75 14.4762 8.92954 14.8966 9.69638 15.3184C10.4272 15.7203 11.5049 16 12.75 16C13.9951 16 15.0728 15.7203 15.8036 15.3184C16.5705 14.8966 16.75 14.4762 16.75 14.25C16.75 14.2323 16.7489 14.2134 16.7465 14.1933Z" fill="white"/>
</svg>
