<svg width="40" height="40" viewBox="0 0 40 40" fill="none" xmlns="http://www.w3.org/2000/svg">
<rect width="40" height="40" rx="20" fill="url(#paint0_linear_1368_247)"/>
<path d="M15.166 27.166C14.3945 27.166 13.8965 26.7168 13.8965 26.0039C13.8965 25.8086 13.9453 25.5352 14.0625 25.2324L18.1543 14.1094C18.4961 13.1719 19.0625 12.7422 19.9805 12.7422C20.9082 12.7422 21.4746 13.1523 21.8262 14.0996L25.9277 25.2324C26.0449 25.5547 26.0938 25.7793 26.0938 26.0039C26.0938 26.6875 25.5664 27.166 24.834 27.166C24.1504 27.166 23.7695 26.8535 23.5449 26.1016L22.6172 23.4062H17.3535L16.4258 26.082C16.1914 26.8438 15.8203 27.166 15.166 27.166ZM17.9492 21.4141H22.002L20 15.3984H19.9316L17.9492 21.4141Z" fill="white"/>
<defs>
<linearGradient id="paint0_linear_1368_247" x1="20" y1="0" x2="20" y2="40" gradientUnits="userSpaceOnUse">
<stop stop-color="#E0A2F3"/>
<stop offset="1" stop-color="#D669ED"/>
</linearGradient>
</defs>
</svg>
