<svg width="25" height="24" viewBox="0 0 25 24" fill="none" xmlns="http://www.w3.org/2000/svg">
<path fill-rule="evenodd" clip-rule="evenodd" d="M12.25 23C18.3251 23 23.25 18.0751 23.25 12C23.25 5.92487 18.3251 1 12.25 1C6.17487 1 1.25 5.92487 1.25 12C1.25 18.0751 6.17487 23 12.25 23ZM12.9354 6.2718C12.5503 5.9094 11.9497 5.9094 11.5646 6.2718L7.31464 10.2718C6.91246 10.6503 6.89329 11.2832 7.2718 11.6854C7.65032 12.0875 8.28319 12.1067 8.68537 11.7282L11.25 9.31443V17C11.25 17.5523 11.6977 18 12.25 18C12.8023 18 13.25 17.5523 13.25 17V9.31443L15.8146 11.7282C16.2168 12.1067 16.8497 12.0875 17.2282 11.6854C17.6067 11.2832 17.5875 10.6503 17.1854 10.2718L12.9354 6.2718Z" fill="white"/>
</svg>
