<svg width="25" height="24" viewBox="0 0 25 24" fill="none" xmlns="http://www.w3.org/2000/svg">
<path fill-rule="evenodd" clip-rule="evenodd" d="M12.75 23C18.8251 23 23.75 18.0751 23.75 12C23.75 5.92487 18.8251 1 12.75 1C6.67487 1 1.75 5.92487 1.75 12C1.75 18.0751 6.67487 23 12.75 23ZM12.75 6C13.3023 6 13.75 6.44772 13.75 7V11H17.75C18.3023 11 18.75 11.4477 18.75 12C18.75 12.5523 18.3023 13 17.75 13H13.75V17C13.75 17.5523 13.3023 18 12.75 18C12.1977 18 11.75 17.5523 11.75 17V13H7.75C7.19771 13 6.75 12.5523 6.75 12C6.75 11.4477 7.19771 11 7.75 11H11.75V7C11.75 6.44772 12.1977 6 12.75 6Z" fill="white"/>
</svg>
