<svg width="256" height="256" viewBox="0 0 256 256" fill="none" xmlns="http://www.w3.org/2000/svg">
<g filter="url(#filter0_d_2594_7281)">
<path d="M68 8H59.2C41.2783 8 32.3175 8 25.4723 11.4878C19.4511 14.5557 14.5557 19.4511 11.4878 25.4723C8 32.3175 8 41.2783 8 59.2V68M188 8H196.8C214.722 8 223.683 8 230.528 11.4878C236.549 14.5557 241.444 19.4511 244.512 25.4723C248 32.3175 248 41.2783 248 59.2V68M248 188V196.8C248 214.722 248 223.683 244.512 230.528C241.444 236.549 236.549 241.444 230.528 244.512C223.683 248 214.722 248 196.8 248H188M8 188V196.8C8 214.722 8 223.683 11.4878 230.528C14.5557 236.549 19.4511 241.444 25.4723 244.512C32.3175 248 41.2783 248 59.2 248H68" stroke="white" stroke-width="8" stroke-linecap="round" stroke-linejoin="round"/>
</g>
<defs>
<filter id="filter0_d_2594_7281" x="0" y="0" width="256" height="256" filterUnits="userSpaceOnUse" color-interpolation-filters="sRGB">
<feFlood flood-opacity="0" result="BackgroundImageFix"/>
<feColorMatrix in="SourceAlpha" type="matrix" values="0 0 0 0 0 0 0 0 0 0 0 0 0 0 0 0 0 0 127 0" result="hardAlpha"/>
<feOffset/>
<feGaussianBlur stdDeviation="2"/>
<feComposite in2="hardAlpha" operator="out"/>
<feColorMatrix type="matrix" values="0 0 0 0 0 0 0 0 0 0 0 0 0 0 0 0 0 0 0.25 0"/>
<feBlend mode="normal" in2="BackgroundImageFix" result="effect1_dropShadow_2594_7281"/>
<feBlend mode="normal" in="SourceGraphic" in2="effect1_dropShadow_2594_7281" result="shape"/>
</filter>
</defs>
</svg>
