<svg width="40" height="40" viewBox="0 0 40 40" fill="none" xmlns="http://www.w3.org/2000/svg">
<rect width="40" height="40" rx="20" fill="url(#paint0_linear_2594_3081)"/>
<path d="M13.4668 19.9492C13.4668 19.6562 13.571 19.4056 13.7793 19.1973C13.9941 18.9824 14.2513 18.875 14.5508 18.875H18.916V14.5C18.916 14.207 19.0234 13.9531 19.2383 13.7383C19.4531 13.5234 19.707 13.416 20 13.416C20.2995 13.416 20.5534 13.5234 20.7617 13.7383C20.9701 13.9531 21.0742 14.207 21.0742 14.5V18.875H25.459C25.752 18.875 26.0026 18.9824 26.2109 19.1973C26.4258 19.4056 26.5332 19.6562 26.5332 19.9492C26.5332 20.2487 26.4258 20.5059 26.2109 20.7207C26.0026 20.929 25.752 21.0332 25.459 21.0332H21.0742V25.4082C21.0742 25.7012 20.9701 25.9551 20.7617 26.1699C20.5534 26.3848 20.2995 26.4922 20 26.4922C19.707 26.4922 19.4531 26.3848 19.2383 26.1699C19.0234 25.9551 18.916 25.7012 18.916 25.4082V21.0332H14.5508C14.2513 21.0332 13.9941 20.929 13.7793 20.7207C13.571 20.5059 13.4668 20.2487 13.4668 19.9492Z" fill="white"/>
<defs>
<linearGradient id="paint0_linear_2594_3081" x1="20" y1="0" x2="20" y2="40" gradientUnits="userSpaceOnUse">
<stop stop-color="#A0DE7E"/>
<stop offset="1" stop-color="#54CB68"/>
</linearGradient>
</defs>
</svg>
