<svg width="30" height="30" viewBox="0 0 30 30" fill="none" xmlns="http://www.w3.org/2000/svg">
<rect width="30" height="30" rx="8" fill="#34C759"/>
<path fill-rule="evenodd" clip-rule="evenodd" d="M25 14H5V19.8C5 20.9201 5 21.4802 5.21799 21.908C5.40973 22.2843 5.71569 22.5903 6.09202 22.782C6.51984 23 7.0799 23 8.2 23H21.8C22.9201 23 23.4802 23 23.908 22.782C24.2843 22.5903 24.5903 22.2843 24.782 21.908C25 21.4802 25 20.9201 25 19.8V14ZM8.07612 17.6173C8 17.8011 8 18.0341 8 18.5C8 18.9659 8 19.1989 8.07612 19.3827C8.17761 19.6277 8.37229 19.8224 8.61732 19.9239C8.80109 20 9.03406 20 9.5 20H11.5C11.9659 20 12.1989 20 12.3827 19.9239C12.6277 19.8224 12.8224 19.6277 12.9239 19.3827C13 19.1989 13 18.9659 13 18.5C13 18.0341 13 17.8011 12.9239 17.6173C12.8224 17.3723 12.6277 17.1776 12.3827 17.0761C12.1989 17 11.9659 17 11.5 17H9.5C9.03406 17 8.80109 17 8.61732 17.0761C8.37229 17.1776 8.17761 17.3723 8.07612 17.6173Z" fill="white"/>
<path d="M5 10.2C5 9.0799 5 8.51984 5.21799 8.09202C5.40973 7.71569 5.71569 7.40973 6.09202 7.21799C6.51984 7 7.0799 7 8.2 7H21.8C22.9201 7 23.4802 7 23.908 7.21799C24.2843 7.40973 24.5903 7.71569 24.782 8.09202C25 8.51984 25 9.0799 25 10.2V11H5V10.2Z" fill="white"/>
</svg>
