<svg width="38" height="37" viewBox="0 0 38 37" fill="none" xmlns="http://www.w3.org/2000/svg">
<path d="M18.9766 36.8906C8.89844 36.8906 0.578125 28.5938 0.578125 18.4922C0.578125 8.41406 8.89844 0.09375 18.9766 0.09375C29.0547 0.09375 37.375 8.41406 37.375 18.4922C37.375 28.5938 29.0781 36.8906 18.9766 36.8906ZM18.5312 21.9609C19.7266 21.9609 20.5469 21.3281 20.6875 20.4844C20.6875 20.4375 20.7109 20.3672 20.7109 20.3203C20.8516 19.5 21.6016 18.9141 22.6094 18.2578C24.4609 17.0859 25.5625 16.0547 25.5625 13.9453C25.5625 10.8047 22.6562 8.90625 19.1406 8.90625C15.9531 8.90625 13.7266 10.1953 13 11.9531C12.8594 12.3047 12.7656 12.6328 12.7656 13.0312C12.7656 14.0625 13.5859 14.8125 14.5938 14.8125C15.3672 14.8125 15.9297 14.5078 16.375 13.9688L16.6328 13.6406C17.2891 12.8203 17.9453 12.5391 18.7422 12.5391C19.8672 12.5391 20.6641 13.2422 20.6641 14.2031C20.6641 15.2344 19.8906 15.7266 18.4375 16.7344C17.1719 17.6016 16.2344 18.4922 16.2344 19.9922V20.0859C16.2344 21.3281 17.0547 21.9609 18.5312 21.9609ZM18.5078 27.8906C19.9141 27.8906 21.0156 27 21.0156 25.6406C21.0156 24.2812 19.9141 23.3672 18.5078 23.3672C17.1016 23.3672 15.9766 24.2812 15.9766 25.6406C15.9766 26.9766 17.1016 27.8906 18.5078 27.8906Z" fill="#007AFF"/>
</svg>
