<svg width="18" height="23" viewBox="0 0 18 23" fill="none" xmlns="http://www.w3.org/2000/svg">
<path d="M0 13.0547C0 11.8047 0.229167 10.638 0.6875 9.55469C1.15104 8.47135 1.79167 7.52083 2.60938 6.70312C3.42708 5.88542 4.3776 5.2474 5.46094 4.78906C6.54427 4.32552 7.71094 4.09375 8.96094 4.09375C9.23698 4.09375 9.50781 4.10938 9.77344 4.14062C10.0443 4.16667 10.2891 4.20312 10.5078 4.25L7.97656 1.73438C7.88802 1.64062 7.82031 1.54167 7.77344 1.4375C7.72656 1.32812 7.70312 1.20573 7.70312 1.07031C7.70312 0.794271 7.79427 0.5625 7.97656 0.375C8.16406 0.182292 8.39323 0.0859375 8.66406 0.0859375C8.9401 0.0859375 9.16667 0.182292 9.34375 0.375L13.5312 4.64062C13.7448 4.84896 13.8516 5.09375 13.8516 5.375C13.8516 5.51042 13.8255 5.64062 13.7734 5.76562C13.7214 5.88542 13.6406 6.0026 13.5312 6.11719L9.34375 10.3516C9.17188 10.5286 8.94531 10.6172 8.66406 10.6172C8.39323 10.6172 8.16406 10.526 7.97656 10.3438C7.79427 10.1562 7.70312 9.92708 7.70312 9.65625C7.70312 9.52604 7.72656 9.40625 7.77344 9.29688C7.82552 9.1875 7.89583 9.08854 7.98438 9L10.7969 6.19531C10.5417 6.13281 10.2552 6.08594 9.9375 6.05469C9.61979 6.02344 9.29427 6.00781 8.96094 6.00781C7.98698 6.00781 7.07552 6.1901 6.22656 6.55469C5.38281 6.91406 4.64062 7.41667 4 8.0625C3.36458 8.70312 2.86719 9.45052 2.50781 10.3047C2.14844 11.1536 1.96875 12.0703 1.96875 13.0547C1.96875 14.0339 2.14844 14.9505 2.50781 15.8047C2.8724 16.6536 3.375 17.3984 4.01562 18.0391C4.66146 18.6849 5.40885 19.1875 6.25781 19.5469C7.11198 19.9115 8.02604 20.0938 9 20.0938C9.97396 20.0938 10.8854 19.9115 11.7344 19.5469C12.5833 19.1875 13.3281 18.6849 13.9688 18.0391C14.6146 17.3984 15.1198 16.6536 15.4844 15.8047C15.849 14.9505 16.0312 14.0339 16.0312 13.0547C16.0312 12.7578 16.1172 12.5156 16.2891 12.3281C16.4661 12.1406 16.6979 12.0469 16.9844 12.0469C17.2812 12.0469 17.5234 12.1406 17.7109 12.3281C17.8984 12.5156 17.9922 12.7578 17.9922 13.0547C17.9922 14.0547 17.8411 15.0078 17.5391 15.9141C17.237 16.8151 16.8125 17.638 16.2656 18.3828C15.7188 19.1328 15.0677 19.7812 14.3125 20.3281C13.5625 20.8802 12.737 21.3073 11.8359 21.6094C10.9401 21.9167 9.99479 22.0703 9 22.0703C8 22.0703 7.04948 21.9167 6.14844 21.6094C5.2474 21.3073 4.42188 20.8802 3.67188 20.3281C2.92708 19.7812 2.27865 19.1328 1.72656 18.3828C1.17969 17.638 0.755208 16.8151 0.453125 15.9141C0.151042 15.0078 0 14.0547 0 13.0547Z" fill="#007AFF"/>
</svg>
