<svg width="40" height="40" viewBox="0 0 40 40" fill="none" xmlns="http://www.w3.org/2000/svg">
<rect width="40" height="40" rx="20" fill="url(#paint0_linear_4301_90)"/>
<path d="M25.8984 22.7812C25.8984 23.0938 25.7943 23.3542 25.5859 23.5625C25.3841 23.7708 25.1432 23.875 24.8633 23.875C24.5833 23.875 24.3424 23.7708 24.1406 23.5625C23.9453 23.3542 23.8477 23.1035 23.8477 22.8105V20.2617L23.9844 17.3027L22.7539 18.6992L15.9277 25.5254C15.6999 25.7533 15.446 25.8672 15.166 25.8672C14.8926 25.8672 14.6452 25.7598 14.4238 25.5449C14.209 25.3236 14.1016 25.0729 14.1016 24.793C14.1016 24.5195 14.2155 24.2689 14.4434 24.041L21.2598 17.2051L22.6562 15.9941L19.6777 16.1016H17.1582C16.8652 16.1016 16.6146 16.0039 16.4062 15.8086C16.1979 15.6133 16.0938 15.3789 16.0938 15.1055C16.0938 14.819 16.1947 14.5749 16.3965 14.373C16.5983 14.1712 16.8555 14.0703 17.168 14.0703H24.7949C25.127 14.0703 25.3939 14.1745 25.5957 14.3828C25.7975 14.5846 25.8984 14.8451 25.8984 15.1641V22.7812Z" fill="white"/>
<defs>
<linearGradient id="paint0_linear_4301_90" x1="20" y1="0" x2="20" y2="40" gradientUnits="userSpaceOnUse">
<stop stop-color="#72D5FD"/>
<stop offset="1" stop-color="#2A9EF1"/>
</linearGradient>
</defs>
</svg>
