<svg width="18" height="18" viewBox="0 0 18 18" fill="none" xmlns="http://www.w3.org/2000/svg">
<path fill-rule="evenodd" clip-rule="evenodd" d="M4.19992 0.169922H4.1668H4.16678C3.63495 0.16991 3.18627 0.1699 2.81874 0.199928C2.43391 0.23137 2.06555 0.299827 1.71513 0.478375C1.18263 0.749697 0.749697 1.18263 0.478375 1.71513C0.299827 2.06555 0.23137 2.43391 0.199928 2.81874C0.1699 3.18627 0.16991 3.63495 0.169922 4.16678V4.1668V4.19992V4.99992C0.169922 5.45832 0.541527 5.82992 0.999923 5.82992C1.45832 5.82992 1.82992 5.45832 1.82992 4.99992V4.19992C1.82992 3.62617 1.83057 3.24578 1.85442 2.95392C1.87747 2.67174 1.91801 2.54616 1.95745 2.46875C2.06962 2.2486 2.2486 2.06962 2.46875 1.95745C2.54616 1.91801 2.67174 1.87747 2.95392 1.85442C3.24578 1.83057 3.62617 1.82992 4.19992 1.82992H4.99992C5.45832 1.82992 5.82992 1.45832 5.82992 0.999923C5.82992 0.541527 5.45832 0.169922 4.99992 0.169922H4.19992ZM13.7999 1.82992C14.3737 1.82992 14.7541 1.83057 15.0459 1.85442C15.3281 1.87747 15.4537 1.91801 15.5311 1.95745C15.7512 2.06962 15.9302 2.2486 16.0424 2.46875C16.0818 2.54616 16.1224 2.67174 16.1454 2.95392C16.1693 3.24578 16.1699 3.62617 16.1699 4.19992V4.99992C16.1699 5.45832 16.5415 5.82992 16.9999 5.82992C17.4583 5.82992 17.8299 5.45832 17.8299 4.99992V4.19992V4.16684C17.8299 3.63498 17.8299 3.18629 17.7999 2.81874C17.7685 2.43391 17.7 2.06555 17.5215 1.71513C17.2502 1.18263 16.8172 0.749697 16.2847 0.478375C15.9343 0.299827 15.5659 0.23137 15.1811 0.199928C14.8136 0.1699 14.3649 0.16991 13.8331 0.169922H13.833H13.7999H12.9999C12.5415 0.169922 12.1699 0.541527 12.1699 0.999923C12.1699 1.45832 12.5415 1.82992 12.9999 1.82992H13.7999ZM1.82992 12.9999C1.82992 12.5415 1.45832 12.1699 0.999923 12.1699C0.541527 12.1699 0.169922 12.5415 0.169922 12.9999V13.7999V13.833V13.8331C0.16991 14.3649 0.1699 14.8136 0.199928 15.1811C0.23137 15.5659 0.299827 15.9343 0.478375 16.2847C0.749697 16.8172 1.18263 17.2502 1.71513 17.5215C2.06555 17.7 2.43391 17.7685 2.81874 17.7999C3.18629 17.8299 3.63498 17.8299 4.16684 17.8299H4.19992H4.99992C5.45832 17.8299 5.82992 17.4583 5.82992 16.9999C5.82992 16.5415 5.45832 16.1699 4.99992 16.1699H4.19992C3.62617 16.1699 3.24578 16.1693 2.95392 16.1454C2.67174 16.1224 2.54616 16.0818 2.46875 16.0424C2.2486 15.9302 2.06962 15.7512 1.95745 15.5311C1.91801 15.4537 1.87747 15.3281 1.85442 15.0459C1.83057 14.7541 1.82992 14.3737 1.82992 13.7999V12.9999ZM17.8299 12.9999C17.8299 12.5415 17.4583 12.1699 16.9999 12.1699C16.5415 12.1699 16.1699 12.5415 16.1699 12.9999V13.7999C16.1699 14.3737 16.1693 14.7541 16.1454 15.0459C16.1224 15.3281 16.0818 15.4537 16.0424 15.5311C15.9302 15.7512 15.7512 15.9302 15.5311 16.0424C15.4537 16.0818 15.3281 16.1224 15.0459 16.1454C14.7541 16.1693 14.3737 16.1699 13.7999 16.1699H12.9999C12.5415 16.1699 12.1699 16.5415 12.1699 16.9999C12.1699 17.4583 12.5415 17.8299 12.9999 17.8299H13.7999H13.833C14.3649 17.8299 14.8136 17.8299 15.1811 17.7999C15.5659 17.7685 15.9343 17.7 16.2847 17.5215C16.8172 17.2502 17.2502 16.8172 17.5215 16.2847C17.7 15.9343 17.7685 15.5659 17.7999 15.1811C17.8299 14.8136 17.8299 14.3649 17.8299 13.833V13.7999V12.9999ZM3.99992 8.16992C3.54153 8.16992 3.16992 8.54153 3.16992 8.99992C3.16992 9.45832 3.54153 9.82992 3.99992 9.82992H13.9999C14.4583 9.82992 14.8299 9.45832 14.8299 8.99992C14.8299 8.54153 14.4583 8.16992 13.9999 8.16992H3.99992Z" fill="white"/>
</svg>
