<svg width="40" height="40" viewBox="0 0 40 40" fill="none" xmlns="http://www.w3.org/2000/svg">
<rect width="40" height="40" rx="20" fill="url(#paint0_linear_4301_824)"/>
<path d="M14.1016 17.1465C14.1016 16.8405 14.2025 16.5833 14.4043 16.375C14.6126 16.1667 14.8568 16.0625 15.1367 16.0625C15.4232 16.0625 15.6641 16.1667 15.8594 16.375C16.0547 16.5833 16.1523 16.834 16.1523 17.127V19.666L16.0156 22.6348L17.2461 21.2285L24.0723 14.4023C24.3001 14.181 24.554 14.0703 24.834 14.0703C25.1139 14.0703 25.3613 14.181 25.5762 14.4023C25.791 14.6172 25.8984 14.8646 25.8984 15.1445C25.8984 15.4115 25.7845 15.6621 25.5566 15.8965L18.7402 22.7227L17.3438 23.9434L20.3223 23.8262H22.8418C23.1348 23.8262 23.3854 23.9238 23.5938 24.1191C23.8021 24.3145 23.9062 24.5521 23.9062 24.832C23.9062 25.112 23.8021 25.3561 23.5938 25.5645C23.3919 25.7663 23.1348 25.8672 22.8223 25.8672H15.2051C14.873 25.8672 14.6061 25.7663 14.4043 25.5645C14.2025 25.3561 14.1016 25.0892 14.1016 24.7637V17.1465Z" fill="white"/>
<defs>
<linearGradient id="paint0_linear_4301_824" x1="20" y1="0" x2="20" y2="40" gradientUnits="userSpaceOnUse">
<stop stop-color="#72D5FD"/>
<stop offset="1" stop-color="#2A9EF1"/>
</linearGradient>
</defs>
</svg>
