<svg width="31" height="26" viewBox="0 0 31 26" fill="none" xmlns="http://www.w3.org/2000/svg">
<path d="M26.1719 25.7344L14.3047 25.7207C13.7669 25.7207 13.2565 25.6615 12.7734 25.543C12.2995 25.4336 11.8438 25.2559 11.4062 25.0098C10.9779 24.7637 10.5768 24.4447 10.2031 24.0527L2.13672 15.7266C1.6901 15.2617 1.36198 14.8197 1.15234 14.4004C0.942708 13.972 0.837891 13.5482 0.837891 13.1289C0.837891 12.8372 0.883464 12.5547 0.974609 12.2812C1.06576 11.9987 1.20703 11.7116 1.39844 11.4199C1.58984 11.1283 1.83594 10.832 2.13672 10.5312L10.1895 2.16406C10.5632 1.77214 10.9642 1.45768 11.3926 1.2207C11.8301 0.983724 12.2858 0.815104 12.7598 0.714844C13.2428 0.614583 13.7533 0.564453 14.291 0.564453H26.1719C27.6029 0.564453 28.6738 0.919922 29.3848 1.63086C30.1048 2.33268 30.4648 3.38997 30.4648 4.80273V21.4961C30.4648 22.9089 30.1048 23.9661 29.3848 24.668C28.6738 25.3789 27.6029 25.7344 26.1719 25.7344ZM13.5527 18.8848C13.8809 18.8848 14.1589 18.7754 14.3867 18.5566L18.1602 14.7559L21.9473 18.5566C22.1569 18.7754 22.4258 18.8848 22.7539 18.8848C23.0729 18.8848 23.3418 18.7754 23.5605 18.5566C23.7793 18.3288 23.8887 18.0599 23.8887 17.75C23.8887 17.4128 23.7793 17.1439 23.5605 16.9434L19.7598 13.1562L23.5742 9.35547C23.793 9.1276 23.9023 8.85872 23.9023 8.54883C23.9023 8.23893 23.793 7.97461 23.5742 7.75586C23.3555 7.53711 23.0911 7.42773 22.7812 7.42773C22.4805 7.42773 22.2207 7.53711 22.002 7.75586L18.1602 11.5703L14.3457 7.76953C14.1178 7.5599 13.8535 7.45508 13.5527 7.45508C13.2428 7.45508 12.9785 7.56445 12.7598 7.7832C12.541 7.99284 12.4316 8.25716 12.4316 8.57617C12.4316 8.87695 12.541 9.14128 12.7598 9.36914L16.5605 13.1562L12.7598 16.957C12.541 17.1758 12.4316 17.4401 12.4316 17.75C12.4316 18.0599 12.541 18.3288 12.7598 18.5566C12.9785 18.7754 13.2428 18.8848 13.5527 18.8848Z" fill="black"/>
</svg>
