<svg width="40" height="40" viewBox="0 0 40 40" fill="none" xmlns="http://www.w3.org/2000/svg">
<rect width="40" height="40" rx="20" fill="black"/>
<rect width="40" height="40" rx="20" fill="url(#paint0_linear_4301_544)"/>
<path d="M16.3184 21.043H19.9902C20.1921 21.043 20.3613 20.9746 20.498 20.8379C20.6413 20.7012 20.7129 20.5286 20.7129 20.3203V15.5254C20.7129 15.3236 20.6413 15.1543 20.498 15.0176C20.3613 14.8743 20.1921 14.8027 19.9902 14.8027C19.7884 14.8027 19.6191 14.8743 19.4824 15.0176C19.3457 15.1543 19.2773 15.3236 19.2773 15.5254V19.5977H16.3184C16.1165 19.5977 15.944 19.6693 15.8008 19.8125C15.6641 19.9492 15.5957 20.1185 15.5957 20.3203C15.5957 20.5286 15.6641 20.7012 15.8008 20.8379C15.944 20.9746 16.1165 21.043 16.3184 21.043ZM20 27.9961C18.8997 27.9961 17.8646 27.7878 16.8945 27.3711C15.9245 26.9544 15.0684 26.375 14.3262 25.6328C13.584 24.8841 13.0013 24.0247 12.5781 23.0547C12.1615 22.0846 11.9531 21.0495 11.9531 19.9492C11.9531 18.849 12.1615 17.8138 12.5781 16.8438C13.0013 15.8737 13.5807 15.0176 14.3164 14.2754C15.0586 13.5332 15.9147 12.9538 16.8848 12.5371C17.8548 12.1204 18.89 11.9121 19.9902 11.9121C21.097 11.9121 22.1354 12.1204 23.1055 12.5371C24.0755 12.9538 24.9316 13.5332 25.6738 14.2754C26.416 15.0176 26.9954 15.8737 27.4121 16.8438C27.8353 17.8138 28.0469 18.849 28.0469 19.9492C28.0469 21.0495 27.8353 22.0846 27.4121 23.0547C26.9954 24.0247 26.416 24.8841 25.6738 25.6328C24.9382 26.375 24.0853 26.9544 23.1152 27.3711C22.1452 27.7878 21.1068 27.9961 20 27.9961Z" fill="white"/>
<defs>
<linearGradient id="paint0_linear_4301_544" x1="20" y1="0" x2="20" y2="40" gradientUnits="userSpaceOnUse">
<stop stop-color="#A7ADB9"/>
<stop offset="1" stop-color="#878B96"/>
</linearGradient>
</defs>
</svg>
