<svg width="40" height="40" viewBox="0 0 40 40" fill="none" xmlns="http://www.w3.org/2000/svg">
<g clip-path="url(#clip0_2594_8610)">
<rect width="40" height="40" rx="20" fill="#F7931A"/>
<path fill-rule="evenodd" clip-rule="evenodd" d="M28.9102 17.7822C29.3085 15.0834 27.283 13.6323 24.5156 12.6641L25.4135 9.00734L23.2219 8.45368L22.3468 12.0138C21.7829 11.8701 21.2045 11.7362 20.627 11.6026L20.5902 11.5941L21.4717 8.01076L19.2801 7.45581L18.3821 11.1112L18.2863 11.089C17.8424 10.986 17.4055 10.8846 16.9819 10.7765L16.9844 10.7649L13.9608 9.99877L13.3774 12.3756C13.3774 12.3756 15.0046 12.7542 14.9704 12.7774C15.8582 13.0027 16.018 13.5988 15.9914 14.0727L14.9691 18.238C15.03 18.2534 15.1086 18.2766 15.1974 18.3114L14.9653 18.2534L13.5321 24.0887C13.4231 24.3617 13.1479 24.7724 12.5264 24.6166C12.5492 24.6488 10.9334 24.2136 10.9334 24.2136L9.84521 26.7604L12.6989 27.4828C13.0053 27.5609 13.3084 27.6412 13.6084 27.7207C13.8273 27.7787 14.0445 27.8363 14.2601 27.8922L13.3533 31.5901L15.5437 32.1438L16.4416 28.4871C17.0402 28.6506 17.6211 28.8025 18.1893 28.9467L17.2939 32.588L19.4855 33.1417L20.3923 29.4515C24.1313 30.1699 26.9418 29.8802 28.1251 26.4475C29.0789 23.6844 28.0782 22.0891 26.1111 21.05C27.5443 20.7153 28.6223 19.7586 28.9102 17.7822ZM23.9004 24.9128C23.2803 27.4487 19.3707 26.4003 17.5812 25.9205C17.42 25.8772 17.276 25.8386 17.1531 25.8076L18.358 20.9084C18.5078 20.9464 18.691 20.9882 18.8985 21.0355C20.7496 21.4577 24.5379 22.3217 23.9004 24.9128ZM19.2703 18.7613C20.7615 19.1655 24.0129 20.0468 24.579 17.7422C25.158 15.3852 21.9972 14.6753 20.4532 14.3286C20.2792 14.2895 20.1257 14.255 20.0004 14.2233L18.9097 18.6654C19.013 18.6916 19.1343 18.7245 19.2703 18.7613Z" fill="white"/>
</g>
<defs>
<clipPath id="clip0_2594_8610">
<rect width="40" height="40" fill="white"/>
</clipPath>
</defs>
</svg>
