<svg width="14" height="14" viewBox="0 0 14 14" fill="none" xmlns="http://www.w3.org/2000/svg">
<path d="M6.86084 13.7056C5.94775 13.7056 5.08724 13.5312 4.2793 13.1826C3.47135 12.834 2.75749 12.3498 2.1377 11.73C1.52344 11.1102 1.03923 10.3963 0.685059 9.58838C0.336426 8.78044 0.162109 7.91992 0.162109 7.00684C0.162109 6.09375 0.336426 5.23324 0.685059 4.42529C1.03923 3.61735 1.52344 2.90348 2.1377 2.28369C2.75195 1.6639 3.46305 1.17969 4.271 0.831055C5.07894 0.482422 5.93945 0.308105 6.85254 0.308105C7.77116 0.308105 8.63444 0.482422 9.44238 0.831055C10.2503 1.17969 10.9642 1.6639 11.584 2.28369C12.2038 2.90348 12.688 3.61735 13.0366 4.42529C13.3908 5.23324 13.5679 6.09375 13.5679 7.00684C13.5679 7.91992 13.3908 8.78044 13.0366 9.58838C12.688 10.3963 12.2038 11.1102 11.584 11.73C10.9697 12.3498 10.2586 12.834 9.45068 13.1826C8.64274 13.5312 7.77946 13.7056 6.86084 13.7056ZM6.72803 8.41797C6.92171 8.41797 7.07389 8.3654 7.18457 8.26025C7.29525 8.15511 7.35059 8.02783 7.35059 7.87842C7.35059 7.86735 7.35059 7.85905 7.35059 7.85352C7.35059 7.84245 7.35059 7.83415 7.35059 7.82861C7.35059 7.646 7.40592 7.48828 7.5166 7.35547C7.63281 7.22266 7.80436 7.08154 8.03125 6.93213C8.35221 6.72738 8.62614 6.50602 8.85303 6.26807C9.07992 6.03011 9.19336 5.69808 9.19336 5.27197C9.19336 4.87354 9.08822 4.5415 8.87793 4.27588C8.66764 4.01025 8.39095 3.81104 8.04785 3.67822C7.71029 3.54541 7.34505 3.479 6.95215 3.479C6.36003 3.479 5.87305 3.59245 5.49121 3.81934C5.11491 4.04622 4.87695 4.30908 4.77734 4.60791C4.72754 4.74626 4.70264 4.86523 4.70264 4.96484C4.70264 5.13086 4.75798 5.2609 4.86865 5.35498C4.98486 5.44352 5.10661 5.48779 5.23389 5.48779C5.36117 5.48779 5.46631 5.46012 5.54932 5.40479C5.63786 5.34945 5.72087 5.28027 5.79834 5.19727L5.93945 5.01465C6.08333 4.83757 6.23275 4.71029 6.3877 4.63281C6.54818 4.55534 6.72249 4.5166 6.91064 4.5166C7.18734 4.5166 7.41146 4.59131 7.58301 4.74072C7.75456 4.89014 7.84033 5.08659 7.84033 5.33008C7.84033 5.55697 7.76562 5.73958 7.61621 5.87793C7.47233 6.01628 7.25651 6.18783 6.96875 6.39258C6.74186 6.55306 6.54264 6.73568 6.37109 6.94043C6.19954 7.14518 6.11377 7.42188 6.11377 7.77051C6.11377 7.77604 6.11377 7.78434 6.11377 7.79541C6.11377 7.80094 6.11377 7.80648 6.11377 7.81201C6.11377 8.21598 6.31852 8.41797 6.72803 8.41797ZM6.71143 10.4849C6.92171 10.4849 7.1071 10.4129 7.26758 10.269C7.42806 10.1252 7.5083 9.94531 7.5083 9.72949C7.5083 9.51367 7.42806 9.33382 7.26758 9.18994C7.11263 9.04053 6.92725 8.96582 6.71143 8.96582C6.49561 8.96582 6.31022 9.04053 6.15527 9.18994C6.00033 9.33936 5.92285 9.51921 5.92285 9.72949C5.92285 9.93978 6.00033 10.1196 6.15527 10.269C6.31576 10.4129 6.50114 10.4849 6.71143 10.4849Z" fill="#C8C7CB"/>
</svg>
