<svg width="40" height="32" viewBox="0 0 40 32" fill="none" xmlns="http://www.w3.org/2000/svg">
<path fill-rule="evenodd" clip-rule="evenodd" d="M9.32698 7.63803C9 8.27976 9 9.11984 9 10.8V11.2C9 12.8802 9 13.7202 9.32698 14.362C9.6146 14.9265 10.0735 15.3854 10.638 15.673C11.2798 16 12.1198 16 13.8 16H14.2C15.8802 16 16.7202 16 17.362 15.673C17.9265 15.3854 18.3854 14.9265 18.673 14.362C19 13.7202 19 12.8802 19 11.2V10.8C19 9.11984 19 8.27976 18.673 7.63803C18.3854 7.07354 17.9265 6.6146 17.362 6.32698C16.7202 6 15.8802 6 14.2 6H13.8C12.1198 6 11.2798 6 10.638 6.32698C10.0735 6.6146 9.6146 7.07354 9.32698 7.63803ZM9.32698 19.638C9 20.2798 9 21.1198 9 22.8V23.2C9 24.8802 9 25.7202 9.32698 26.362C9.6146 26.9265 10.0735 27.3854 10.638 27.673C11.2798 28 12.1198 28 13.8 28H14.2C15.8802 28 16.7202 28 17.362 27.673C17.9265 27.3854 18.3854 26.9265 18.673 26.362C19 25.7202 19 24.8802 19 23.2V22.8C19 21.1198 19 20.2798 18.673 19.638C18.3854 19.0735 17.9265 18.6146 17.362 18.327C16.7202 18 15.8802 18 14.2 18H13.8C12.1198 18 11.2798 18 10.638 18.327C10.0735 18.6146 9.6146 19.0735 9.32698 19.638ZM21 10.8C21 9.11984 21 8.27976 21.327 7.63803C21.6146 7.07354 22.0735 6.6146 22.638 6.32698C23.2798 6 24.1198 6 25.8 6H26.2C27.8802 6 28.7202 6 29.362 6.32698C29.9265 6.6146 30.3854 7.07354 30.673 7.63803C31 8.27976 31 9.11984 31 10.8V11.2C31 12.8802 31 13.7202 30.673 14.362C30.3854 14.9265 29.9265 15.3854 29.362 15.673C28.7202 16 27.8802 16 26.2 16H25.8C24.1198 16 23.2798 16 22.638 15.673C22.0735 15.3854 21.6146 14.9265 21.327 14.362C21 13.7202 21 12.8802 21 11.2V10.8ZM21.327 19.638C21 20.2798 21 21.1198 21 22.8V23.2C21 24.8802 21 25.7202 21.327 26.362C21.6146 26.9265 22.0735 27.3854 22.638 27.673C23.2798 28 24.1198 28 25.8 28H26.2C27.8802 28 28.7202 28 29.362 27.673C29.9265 27.3854 30.3854 26.9265 30.673 26.362C31 25.7202 31 24.8802 31 23.2V22.8C31 21.1198 31 20.2798 30.673 19.638C30.3854 19.0735 29.9265 18.6146 29.362 18.327C28.7202 18 27.8802 18 26.2 18H25.8C24.1198 18 23.2798 18 22.638 18.327C22.0735 18.6146 21.6146 19.0735 21.327 19.638Z" fill="black"/>
</svg>
