<svg width="40" height="40" viewBox="0 0 40 40" fill="none" xmlns="http://www.w3.org/2000/svg">
<rect width="40" height="40" rx="20" fill="url(#paint0_linear_1368_148)"/>
<path d="M11.6113 19.2266C11.6113 18.7057 11.6992 18.2337 11.875 17.8105C12.0508 17.3809 12.2884 17.0391 12.5879 16.7852C12.8874 16.5312 13.2227 16.4043 13.5938 16.4043C13.9583 16.4043 14.2904 16.5312 14.5898 16.7852C14.8958 17.0391 15.1367 17.3809 15.3125 17.8105C15.4883 18.2337 15.5762 18.7057 15.5762 19.2266C15.5762 19.7474 15.4883 20.2227 15.3125 20.6523C15.1367 21.082 14.8958 21.4238 14.5898 21.6777C14.2904 21.9316 13.9583 22.0586 13.5938 22.0586C13.2227 22.0586 12.8874 21.9316 12.5879 21.6777C12.2884 21.4238 12.0508 21.082 11.875 20.6523C11.6992 20.2227 11.6113 19.7474 11.6113 19.2266ZM15.4395 14.6562C15.4395 14.1289 15.5273 13.6536 15.7031 13.2305C15.8854 12.8008 16.1263 12.459 16.4258 12.2051C16.7253 11.9512 17.0605 11.8242 17.4316 11.8242C17.8027 11.8242 18.138 11.9512 18.4375 12.2051C18.737 12.459 18.9746 12.8008 19.1504 13.2305C19.3327 13.6536 19.4238 14.1289 19.4238 14.6562C19.4238 15.1706 19.3327 15.6426 19.1504 16.0723C18.9746 16.502 18.737 16.8438 18.4375 17.0977C18.138 17.3451 17.8027 17.4688 17.4316 17.4688C17.0605 17.4688 16.7253 17.3451 16.4258 17.0977C16.1263 16.8438 15.8854 16.5052 15.7031 16.082C15.5273 15.6523 15.4395 15.1771 15.4395 14.6562ZM20.5859 14.6562C20.5859 14.1289 20.6738 13.6536 20.8496 13.2305C21.0254 12.8008 21.263 12.459 21.5625 12.2051C21.8685 11.9512 22.2038 11.8242 22.5684 11.8242C22.9395 11.8242 23.2747 11.9512 23.5742 12.2051C23.8737 12.459 24.1113 12.8008 24.2871 13.2305C24.4694 13.6536 24.5605 14.1289 24.5605 14.6562C24.5605 15.1771 24.4694 15.6523 24.2871 16.082C24.1113 16.5052 23.8737 16.8438 23.5742 17.0977C23.2747 17.3451 22.9395 17.4688 22.5684 17.4688C22.2038 17.4688 21.8685 17.3451 21.5625 17.0977C21.263 16.8438 21.0254 16.502 20.8496 16.0723C20.6738 15.6426 20.5859 15.1706 20.5859 14.6562ZM24.4238 19.2266C24.4238 18.7057 24.5117 18.2337 24.6875 17.8105C24.8633 17.3809 25.1009 17.0391 25.4004 16.7852C25.7064 16.5312 26.0449 16.4043 26.416 16.4043C26.7806 16.4043 27.1126 16.5312 27.4121 16.7852C27.7116 17.0391 27.9492 17.3809 28.125 17.8105C28.3008 18.2337 28.3887 18.7057 28.3887 19.2266C28.3887 19.7474 28.3008 20.2227 28.125 20.6523C27.9492 21.082 27.7116 21.4238 27.4121 21.6777C27.1126 21.9316 26.7806 22.0586 26.416 22.0586C26.0449 22.0586 25.7064 21.9316 25.4004 21.6777C25.1009 21.4238 24.8633 21.082 24.6875 20.6523C24.5117 20.2227 24.4238 19.7474 24.4238 19.2266ZM14.0918 25.2227C14.0918 24.7734 14.1667 24.3893 14.3164 24.0703C14.4727 23.7513 14.6712 23.4714 14.9121 23.2305C15.153 22.9896 15.3971 22.7682 15.6445 22.5664C15.8594 22.3906 16.0612 22.2181 16.25 22.0488C16.4453 21.8796 16.6178 21.6875 16.7676 21.4727C16.8783 21.3034 16.9824 21.1276 17.0801 20.9453C17.1777 20.763 17.2721 20.5742 17.3633 20.3789C17.5521 19.9818 17.7441 19.6074 17.9395 19.2559C18.1348 18.9043 18.3887 18.6178 18.7012 18.3965C19.0202 18.1751 19.4531 18.0645 20 18.0645C20.5534 18.0645 20.9863 18.1751 21.2988 18.3965C21.6113 18.6178 21.8652 18.9043 22.0605 19.2559C22.2559 19.6074 22.4479 19.9818 22.6367 20.3789C22.7344 20.5742 22.8288 20.763 22.9199 20.9453C23.0176 21.1276 23.125 21.3034 23.2422 21.4727C23.3854 21.6875 23.5514 21.8796 23.7402 22.0488C23.9355 22.2181 24.1406 22.3906 24.3555 22.5664C24.6094 22.7682 24.8568 22.9896 25.0977 23.2305C25.3385 23.4714 25.5339 23.7513 25.6836 24.0703C25.8398 24.3893 25.918 24.7734 25.918 25.2227C25.918 26.0625 25.6673 26.7461 25.166 27.2734C24.6712 27.8073 24.0169 28.0742 23.2031 28.0742C22.806 28.0742 22.4577 28.0286 22.1582 27.9375C21.8587 27.8529 21.5755 27.765 21.3086 27.6738C21.1003 27.6022 20.8919 27.5404 20.6836 27.4883C20.4753 27.4362 20.2474 27.4102 20 27.4102C19.7591 27.4102 19.5312 27.4362 19.3164 27.4883C19.1081 27.5404 18.8997 27.6022 18.6914 27.6738C18.4245 27.765 18.1413 27.8529 17.8418 27.9375C17.5423 28.0286 17.194 28.0742 16.7969 28.0742C15.9896 28.0742 15.3353 27.8073 14.834 27.2734C14.3392 26.7461 14.0918 26.0625 14.0918 25.2227Z" fill="white"/>
<defs>
<linearGradient id="paint0_linear_1368_148" x1="20" y1="0" x2="20" y2="40" gradientUnits="userSpaceOnUse">
<stop stop-color="#FF885E"/>
<stop offset="1" stop-color="#FF516A"/>
</linearGradient>
</defs>
</svg>
