<svg width="24" height="24" viewBox="0 0 24 24" fill="none" xmlns="http://www.w3.org/2000/svg">
<path fill-rule="evenodd" clip-rule="evenodd" d="M7.19992 3.16998H7.1668H7.16678C6.63495 3.16997 6.18627 3.16996 5.81874 3.19999C5.43391 3.23143 5.06555 3.29989 4.71513 3.47844C4.18263 3.74976 3.7497 4.18269 3.47837 4.71519C3.29983 5.06561 3.23137 5.43397 3.19993 5.8188C3.1699 6.18633 3.16991 6.63501 3.16992 7.16684V7.16686V7.19998V7.99998C3.16992 8.45838 3.54153 8.82998 3.99992 8.82998C4.45832 8.82998 4.82992 8.45838 4.82992 7.99998V7.19998C4.82992 6.62624 4.83057 6.24584 4.85442 5.95398C4.87747 5.6718 4.91801 5.54622 4.95745 5.46882C5.06962 5.24867 5.2486 5.06968 5.46875 4.95751C5.54616 4.91807 5.67174 4.87753 5.95392 4.85448C6.24578 4.83063 6.62617 4.82998 7.19992 4.82998H7.99992C8.45832 4.82998 8.82992 4.45838 8.82992 3.99998C8.82992 3.54159 8.45832 3.16998 7.99992 3.16998H7.19992ZM16.7999 4.82998C17.3737 4.82998 17.7541 4.83063 18.0459 4.85448C18.3281 4.87753 18.4537 4.91807 18.5311 4.95751C18.7512 5.06968 18.9302 5.24867 19.0424 5.46882C19.0818 5.54622 19.1224 5.6718 19.1454 5.95398C19.1693 6.24584 19.1699 6.62624 19.1699 7.19998V7.99998C19.1699 8.45838 19.5415 8.82998 19.9999 8.82998C20.4583 8.82998 20.8299 8.45838 20.8299 7.99998V7.19998V7.1669C20.8299 6.63505 20.8299 6.18635 20.7999 5.8188C20.7685 5.43397 20.7 5.06561 20.5215 4.71519C20.2502 4.18269 19.8172 3.74976 19.2847 3.47844C18.9343 3.29989 18.5659 3.23143 18.1811 3.19999C17.8136 3.16996 17.3649 3.16997 16.8331 3.16998H16.833H16.7999H15.9999C15.5415 3.16998 15.1699 3.54159 15.1699 3.99998C15.1699 4.45838 15.5415 4.82998 15.9999 4.82998H16.7999ZM4.82992 16C4.82992 15.5416 4.45832 15.17 3.99992 15.17C3.54153 15.17 3.16992 15.5416 3.16992 16V16.8V16.8331V16.8331C3.16991 17.365 3.1699 17.8136 3.19993 18.1812C3.23137 18.566 3.29983 18.9344 3.47837 19.2848C3.7497 19.8173 4.18263 20.2502 4.71513 20.5215C5.06555 20.7001 5.43391 20.7685 5.81874 20.8C6.18629 20.83 6.63498 20.83 7.16684 20.83H7.19992H7.99992C8.45832 20.83 8.82992 20.4584 8.82992 20C8.82992 19.5416 8.45832 19.17 7.99992 19.17H7.19992C6.62617 19.17 6.24578 19.1693 5.95392 19.1455C5.67174 19.1224 5.54616 19.0819 5.46875 19.0425C5.2486 18.9303 5.06962 18.7513 4.95745 18.5312C4.91801 18.4538 4.87747 18.3282 4.85442 18.046C4.83057 17.7541 4.82992 17.3737 4.82992 16.8V16ZM20.8299 16C20.8299 15.5416 20.4583 15.17 19.9999 15.17C19.5415 15.17 19.1699 15.5416 19.1699 16V16.8C19.1699 17.3737 19.1693 17.7541 19.1454 18.046C19.1224 18.3282 19.0818 18.4538 19.0424 18.5312C18.9302 18.7513 18.7512 18.9303 18.5311 19.0425C18.4537 19.0819 18.3281 19.1224 18.0459 19.1455C17.7541 19.1693 17.3737 19.17 16.7999 19.17H15.9999C15.5415 19.17 15.1699 19.5416 15.1699 20C15.1699 20.4584 15.5415 20.83 15.9999 20.83H16.7999H16.833C17.3649 20.83 17.8136 20.83 18.1811 20.8C18.5659 20.7685 18.9343 20.7001 19.2847 20.5215C19.8172 20.2502 20.2502 19.8173 20.5215 19.2848C20.7 18.9344 20.7685 18.566 20.7999 18.1812C20.8299 17.8136 20.8299 17.3649 20.8299 16.8331V16.8V16ZM6.99992 11.17C6.54153 11.17 6.16992 11.5416 6.16992 12C6.16992 12.4584 6.54153 12.83 6.99992 12.83H16.9999C17.4583 12.83 17.8299 12.4584 17.8299 12C17.8299 11.5416 17.4583 11.17 16.9999 11.17H6.99992Z" fill="#007AFF"/>
</svg>
